# xmcd
#
# Track frame offsets:
#	150
#	19972
#	49441
#	77757
#	108820
#	141588
#	169776
#	196923
#	215517
#	259206
#	282842
#	310795
#
# Disc length: 4416 seconds
#
# Revision: 2
# Processed by: cddbd v1.5.2PL0 Copyright (c) Steve Scherf et al.
# Submitted via: audiograbber 1.83.01
#
DISCID=b0113e0c
DTITLE=Cody McFadyen - Der Todeskünstler CD6
DYEAR=2007
DGENRE=Hörbuch
TTITLE0=59
TTITLE1=60
TTITLE2=61
TTITLE3=62
TTITLE4=63
TTITLE5=64
TTITLE6=65
TTITLE7=66
TTITLE8=67
TTITLE9=58
TTITLE10=69
TTITLE11=70
EXTD=
EXTT0=Gelesen von Franziska Pigulla
EXTT1=
EXTT2=
EXTT3=
EXTT4=
EXTT5=
EXTT6=
EXTT7=
EXTT8=
EXTT9=
EXTT10=
EXTT11=
PLAYORDER=
